# xmcd CD database file
#
# Track frame offsets:
#	150
#	14477
#	28301
#	47789
#	58992
#	77521
#	94731
#	112995
#	125603
#	138462
#	149465
#
# Disc length: 2185 seconds
#
# Revision: 0
# Processed by: cddbd v1.5.1PL0 Copyright (c) Steve Scherf et al.
# Submitted via: CDex 1.51
#
DISCID=9e08870b
DTITLE=Bobby Seals - Time Machine
DYEAR=2002
DGENRE=Country
TTITLE0=The Time Machine
TTITLE1=Who's Gonna Play Piano
TTITLE2=All The Way
TTITLE3=Corvette Jet
TTITLE4=Make-Believe Loving
TTITLE5=One Foot Dragging
TTITLE6=Love Makes The World Go 'Round
TTITLE7=The Only Time I See You
TTITLE8=The Fountain Of Youth
TTITLE9=Travelin' Man
TTITLE10=Songs We Fell In Love To
EXTD=YEAR: 2002
EXTT0=
EXTT1=
EXTT2=
EXTT3=
EXTT4=
EXTT5=
EXTT6=
EXTT7=
EXTT8=
EXTT9=
EXTT10=
PLAYORDER=
